<svg width="150" height="19" viewBox="0 0 150 19" fill="none" xmlns="http://www.w3.org/2000/svg">
<path d="M10.4655 4.13634H4.53577V8.26134H9.98499V11.3316H4.53577V17.859H0.75061V1.05431H10.4655V4.13634ZM23.2506 17.859H13.2428V1.05431H17.028V14.7887H23.2506V17.859ZM32.6256 18.152C30.2194 18.152 28.2584 17.3707 26.7428 15.8082C25.2272 14.2379 24.4694 12.1949 24.4694 9.67931C24.4694 7.02306 25.2389 4.87462 26.778 3.23399C28.317 1.59337 30.3561 0.773056 32.8951 0.773056C35.2936 0.773056 37.2311 1.55821 38.7076 3.12852C40.192 4.69884 40.9342 6.76915 40.9342 9.33946C40.9342 11.9801 40.1647 14.109 38.6256 15.7262C37.0944 17.3434 35.0944 18.152 32.6256 18.152ZM32.7897 4.03087C31.4615 4.03087 30.4069 4.53087 29.6256 5.53087C28.8444 6.52306 28.4537 7.83946 28.4537 9.48009C28.4537 11.1441 28.8444 12.4606 29.6256 13.4293C30.4069 14.3981 31.4303 14.8824 32.6959 14.8824C34.0006 14.8824 35.0358 14.4137 35.8014 13.4762C36.567 12.5309 36.9498 11.2223 36.9498 9.5504C36.9498 7.80821 36.5787 6.45274 35.8365 5.48399C35.0944 4.51524 34.0787 4.03087 32.7897 4.03087ZM57.8326 17.859H53.485L50.8717 13.5348C50.6764 13.2066 50.4889 12.9137 50.3092 12.6559C50.1295 12.3981 49.9459 12.1793 49.7584 11.9996C49.5787 11.8121 49.3873 11.6715 49.1842 11.5777C48.9889 11.4762 48.774 11.4254 48.5397 11.4254H47.5201V17.859H43.735V1.05431H49.735C53.8131 1.05431 55.8522 2.57774 55.8522 5.62462C55.8522 6.21056 55.7623 6.75352 55.5826 7.25352C55.403 7.74571 55.149 8.19102 54.8209 8.58946C54.4928 8.9879 54.0944 9.33165 53.6256 9.62071C53.1647 9.90977 52.649 10.1363 52.0787 10.3004V10.3473C52.3287 10.4254 52.5709 10.5543 52.8053 10.734C53.0397 10.9059 53.2662 11.109 53.485 11.3434C53.7037 11.5777 53.9108 11.8316 54.1061 12.1051C54.3092 12.3707 54.4928 12.6324 54.6569 12.8902L57.8326 17.859ZM47.5201 3.89024V8.56602H49.1608C49.9733 8.56602 50.6256 8.33165 51.1178 7.8629C51.6178 7.38634 51.8678 6.79649 51.8678 6.09337C51.8678 4.62462 50.9889 3.89024 49.2311 3.89024H47.5201ZM64.6061 1.05431V3.98399H63.1998V14.9293H64.6061V17.859H58.0084V14.9293H59.4147V3.98399H58.0084V1.05431H64.6061ZM66.2584 17.2145V13.4645C66.9381 14.0348 67.6764 14.4645 68.4733 14.7535C69.2701 15.0348 70.0748 15.1754 70.8873 15.1754C71.3639 15.1754 71.778 15.1324 72.1295 15.0465C72.4889 14.9606 72.7858 14.8434 73.0201 14.6949C73.2623 14.5387 73.442 14.359 73.5592 14.1559C73.6764 13.9449 73.735 13.7184 73.735 13.4762C73.735 13.1481 73.6412 12.8551 73.4537 12.5973C73.2662 12.3395 73.0084 12.1012 72.6803 11.8824C72.36 11.6637 71.9772 11.4527 71.5319 11.2496C71.0865 11.0465 70.6061 10.8395 70.0905 10.6285C68.778 10.0816 67.7975 9.41368 67.149 8.62462C66.5084 7.83556 66.1881 6.88243 66.1881 5.76524C66.1881 4.89024 66.3639 4.14024 66.7155 3.51524C67.067 2.88243 67.5436 2.3629 68.1451 1.95665C68.7545 1.5504 69.4576 1.25352 70.2545 1.06602C71.0514 0.870712 71.8951 0.773056 72.7858 0.773056C73.6608 0.773056 74.4342 0.827744 75.1061 0.937119C75.7858 1.03868 76.4108 1.19884 76.9811 1.41759V4.92149C76.6998 4.72618 76.3912 4.55431 76.0553 4.40587C75.7272 4.25743 75.3873 4.13634 75.0358 4.04259C74.6842 3.94102 74.3326 3.86681 73.9811 3.81993C73.6373 3.77306 73.3092 3.74962 72.9967 3.74962C72.567 3.74962 72.1764 3.79259 71.8248 3.87852C71.4733 3.95665 71.1764 4.06993 70.9342 4.21837C70.692 4.36681 70.5045 4.54649 70.3717 4.75743C70.2389 4.96056 70.1725 5.19102 70.1725 5.44884C70.1725 5.73009 70.2467 5.98399 70.3951 6.21056C70.5436 6.42931 70.7545 6.64024 71.028 6.84337C71.3014 7.03868 71.6334 7.23399 72.024 7.42931C72.4147 7.61681 72.8561 7.81212 73.3483 8.01524C74.0201 8.29649 74.6217 8.59727 75.153 8.91759C75.692 9.23009 76.153 9.58556 76.5358 9.98399C76.9186 10.3824 77.2115 10.8395 77.4147 11.3551C77.6178 11.8629 77.7194 12.4566 77.7194 13.1363C77.7194 14.0738 77.5397 14.8629 77.1803 15.5035C76.8287 16.1363 76.3483 16.652 75.7389 17.0504C75.1295 17.441 74.4186 17.7223 73.6061 17.8941C72.8014 18.066 71.9498 18.152 71.0514 18.152C70.1295 18.152 69.2506 18.0738 68.4147 17.9176C67.5865 17.7613 66.8678 17.527 66.2584 17.2145ZM92.2858 4.13634H87.4928V17.859H83.6959V4.13634H78.9264V1.05431H92.2858V4.13634ZM113.696 17.859H109.958V7.80431C109.958 6.71837 110.005 5.51915 110.098 4.20665H110.005C109.809 5.2379 109.633 5.98009 109.477 6.43321L105.54 17.859H102.446L98.4381 6.5504C98.3287 6.24571 98.153 5.46446 97.9108 4.20665H97.8053C97.9069 5.8629 97.9576 7.31602 97.9576 8.56602V17.859H94.5475V1.05431H100.09L103.524 11.0152C103.797 11.8121 103.997 12.6129 104.122 13.4176H104.192C104.403 12.4879 104.626 11.6793 104.86 10.9918L108.294 1.05431H113.696V17.859ZM132.294 17.859H128.169L126.973 14.1207H120.997L119.813 17.859H115.712L121.829 1.05431H126.317L132.294 17.859ZM126.106 11.2145L124.301 5.56602C124.169 5.14415 124.075 4.64024 124.02 4.05431H123.926C123.887 4.54649 123.79 5.03477 123.633 5.51915L121.805 11.2145H126.106ZM149.508 17.859H145.688L138.762 7.3004C138.356 6.68321 138.075 6.21837 137.919 5.90587H137.872C137.934 6.49962 137.965 7.40587 137.965 8.62462V17.859H134.391V1.05431H138.469L145.137 11.2848C145.442 11.7457 145.723 12.2027 145.981 12.6559H146.028C145.965 12.2652 145.934 11.4957 145.934 10.3473V1.05431H149.508V17.859Z" fill="#073C2A"/>
</svg>
