<svg width="149" height="11" viewBox="0 0 149 11" fill="none" xmlns="http://www.w3.org/2000/svg">
<path d="M7.92212 7.85899H0.123291C0.16626 6.72032 0.187744 5.62999 0.187744 4.588C0.187744 3.50304 0.16626 2.26231 0.123291 0.865829H1.11157C1.07218 1.86843 1.05249 3.0447 1.05249 4.39464V7.12852H3.58228V4.48595C3.58228 3.12169 3.56437 1.91498 3.52856 0.865829H4.51685C4.48104 1.86843 4.46313 3.0447 4.46313 4.39464V7.12852H6.99292V4.48595C6.99292 3.12169 6.97323 1.91498 6.93384 0.865829H7.92212C7.87915 2.28738 7.85767 3.5281 7.85767 4.588C7.85767 5.5906 7.87915 6.68093 7.92212 7.85899ZM14.0344 7.85899H13.073C13.1267 7.24669 13.1536 6.42849 13.1536 5.4044C13.1536 5.11436 13.1715 4.67931 13.2073 4.09923H13.1536C13.0784 4.3463 12.5896 4.9962 11.6873 6.04893C10.8315 7.05512 10.4036 7.65847 10.4036 7.85899H9.64087C9.691 7.14285 9.71606 6.32465 9.71606 5.4044C9.71606 4.36957 9.6534 3.50125 9.52808 2.79942L10.5916 2.6544C10.545 3.31684 10.5217 4.1601 10.5217 5.18419C10.5217 5.54584 10.511 6.00418 10.4895 6.55919H10.5432C10.6256 6.3336 11.1125 5.68549 12.0042 4.61485C12.842 3.60867 13.261 3.00352 13.261 2.79942L14.0237 2.6544C13.9807 3.40278 13.9592 4.31944 13.9592 5.4044C13.9592 6.26378 13.9843 7.08198 14.0344 7.85899ZM20.3347 5.09825C20.3347 5.87169 20.1127 6.55024 19.6687 7.1339C19.2283 7.71397 18.6142 8.00401 17.8264 8.00401C17.1676 8.00401 16.7343 7.88585 16.5266 7.64952H16.4729C16.4729 8.64496 16.4836 9.53298 16.5051 10.3136H15.4954C15.5777 9.36111 15.6189 8.18484 15.6189 6.78477C15.6189 5.05886 15.5294 3.72325 15.3503 2.77794L16.2957 2.64366L16.3762 3.1754H16.4299C16.7773 2.77078 17.3394 2.56847 18.1165 2.56847C18.8004 2.56847 19.3411 2.81912 19.7385 3.32042C20.136 3.81814 20.3347 4.41075 20.3347 5.09825ZM19.3787 5.22716C19.3787 4.69721 19.239 4.24425 18.9597 3.86827C18.6804 3.48871 18.2883 3.29893 17.7834 3.29893C17.1389 3.29893 16.677 3.49408 16.3977 3.88438C16.455 5.08751 16.4836 6.12055 16.4836 6.98351C16.7737 7.22699 17.1514 7.34874 17.6169 7.34874C18.2078 7.34874 18.6482 7.14106 18.9382 6.72569C19.2319 6.31033 19.3787 5.81082 19.3787 5.22716ZM26.4792 5.15196C26.4792 6.06863 26.2161 6.78477 25.6897 7.3004C25.1633 7.81244 24.5439 8.06847 23.8313 8.06847C23.1653 8.06847 22.5924 7.84109 22.1125 7.38634C21.6363 6.93158 21.3982 6.29063 21.3982 5.46349C21.3982 4.53966 21.6614 3.81814 22.1877 3.29893C22.7177 2.77973 23.3389 2.52013 24.0515 2.52013C24.7175 2.52013 25.2887 2.75108 25.7649 3.213C26.2411 3.67133 26.4792 4.31765 26.4792 5.15196ZM25.55 5.33995C25.55 4.78136 25.4086 4.28543 25.1257 3.85216C24.8464 3.41531 24.4472 3.19688 23.928 3.19688C23.4124 3.19688 23.0149 3.40278 22.7356 3.81456C22.4599 4.22634 22.322 4.70437 22.322 5.24864C22.322 5.81082 22.4617 6.30854 22.741 6.74181C23.0238 7.17507 23.4267 7.39171 23.9495 7.39171C24.4651 7.39171 24.8608 7.18582 25.1365 6.77403C25.4122 6.35867 25.55 5.88064 25.55 5.33995ZM32.0383 7.85899H31.0662C31.0375 7.80886 30.9945 7.71576 30.9373 7.5797C30.7081 6.83132 30.4628 6.31212 30.2014 6.02208C29.94 5.73204 29.5963 5.58702 29.1702 5.58702C29.0234 5.58702 28.8336 5.5906 28.6008 5.59776C28.6008 6.42491 28.6277 7.17865 28.6814 7.85899H27.72C27.7737 7.14285 27.8005 6.32465 27.8005 5.4044C27.8005 4.36957 27.7361 3.50125 27.6072 2.79942L28.6707 2.6544C28.6241 3.3419 28.6008 4.10281 28.6008 4.93712C28.8157 4.94428 29.0055 4.94786 29.1702 4.94786C29.9651 4.94786 30.5237 4.29975 30.8459 3.00352C30.8674 2.92117 30.9068 2.83881 30.9641 2.75645H31.8503C31.8145 2.83881 31.7537 2.99099 31.6677 3.213C31.2595 4.33377 30.8012 4.99083 30.2927 5.18419V5.2379C30.6329 5.33816 30.9158 5.54763 31.1414 5.86632C31.3705 6.185 31.5907 6.65229 31.802 7.26817C31.8665 7.45795 31.9452 7.65489 32.0383 7.85899ZM37.4846 7.85899H36.5232C36.5769 7.24669 36.6038 6.42849 36.6038 5.4044C36.6038 5.11436 36.6217 4.67931 36.6575 4.09923H36.6038C36.5286 4.3463 36.0398 4.9962 35.1375 6.04893C34.2817 7.05512 33.8538 7.65847 33.8538 7.85899H33.0911C33.1412 7.14285 33.1663 6.32465 33.1663 5.4044C33.1663 4.36957 33.1036 3.50125 32.9783 2.79942L34.0417 2.6544C33.9952 3.31684 33.9719 4.1601 33.9719 5.18419C33.9719 5.54584 33.9612 6.00418 33.9397 6.55919H33.9934C34.0758 6.3336 34.5627 5.68549 35.4543 4.61485C36.2922 3.60867 36.7112 3.00352 36.7112 2.79942L37.4739 2.6544C37.4309 3.40278 37.4094 4.31944 37.4094 5.4044C37.4094 6.26378 37.4345 7.08198 37.4846 7.85899ZM43.3069 7.85899H42.3455C42.3992 7.24669 42.426 6.42849 42.426 5.4044C42.426 5.11436 42.4439 4.67931 42.4797 4.09923H42.426C42.3508 4.3463 41.8621 4.9962 40.9597 6.04893C40.1039 7.05512 39.676 7.65847 39.676 7.85899H38.9133C38.9635 7.14285 38.9885 6.32465 38.9885 5.4044C38.9885 4.36957 38.9259 3.50125 38.8005 2.79942L39.864 2.6544C39.8175 3.31684 39.7942 4.1601 39.7942 5.18419C39.7942 5.54584 39.7834 6.00418 39.762 6.55919H39.8157C39.898 6.3336 40.385 5.68549 41.2766 4.61485C42.1145 3.60867 42.5334 3.00352 42.5334 2.79942L43.2961 2.6544C43.2532 3.40278 43.2317 4.31944 43.2317 5.4044C43.2317 6.26378 43.2568 7.08198 43.3069 7.85899ZM42.8396 0.468369C42.8396 0.862249 42.7143 1.21853 42.4636 1.53722C42.2166 1.85232 41.7922 2.00987 41.1907 2.00987C40.5676 2.00987 40.129 1.85053 39.8748 1.53185C39.6205 1.20958 39.4934 0.851507 39.4934 0.457626L40.2668 0.355576C40.2668 1.07172 40.5748 1.42979 41.1907 1.42979C41.5523 1.42979 41.7976 1.33849 41.9265 1.15587C42.0554 0.969671 42.1199 0.702906 42.1199 0.355576L42.8396 0.468369ZM51.3367 6.34972C51.3367 6.85102 51.1326 7.23416 50.7244 7.49913C50.3162 7.76052 49.7343 7.89122 48.9788 7.89122C48.5777 7.89122 47.9583 7.88048 47.1204 7.85899C47.1705 7.36843 47.1956 6.54666 47.1956 5.39366C47.1956 4.32302 47.1329 3.44395 47.0076 2.75645H47.5662C48.0997 2.71707 48.6422 2.69737 49.1936 2.69737C50.4683 2.69737 51.1057 3.09125 51.1057 3.87901C51.1057 4.45909 50.8461 4.85655 50.3269 5.0714V5.12511C51.0001 5.25401 51.3367 5.66222 51.3367 6.34972ZM50.4666 6.40343C50.4666 6.03461 50.2983 5.78575 49.9617 5.65685C49.754 5.57807 49.4299 5.53868 48.9895 5.53868C48.6529 5.53868 48.3181 5.55121 47.9851 5.57628C47.9851 6.21365 47.9887 6.7436 47.9958 7.16612C48.3217 7.20909 48.712 7.23058 49.1667 7.23058C50.0333 7.23058 50.4666 6.95486 50.4666 6.40343ZM50.2786 4.10997C50.2786 3.60867 49.9133 3.35802 49.1829 3.35802C48.8248 3.35802 48.4112 3.37413 47.9421 3.40636C47.9708 3.92556 47.9851 4.42507 47.9851 4.90489C48.4327 4.9228 48.8105 4.93175 49.1184 4.93175C49.4872 4.93175 49.7755 4.85297 49.9832 4.69542C50.1801 4.54861 50.2786 4.35346 50.2786 4.10997ZM56.4875 6.15099C56.4875 6.706 56.2655 7.13569 55.8215 7.44005C55.3811 7.74083 54.878 7.89122 54.3123 7.89122C54.0222 7.89122 53.46 7.88048 52.6257 7.85899C52.6651 7.14285 52.6848 6.32465 52.6848 5.4044C52.6848 4.36957 52.6222 3.50125 52.4968 2.79942L53.5066 2.6544C53.4779 3.10558 53.4636 3.78412 53.4636 4.69005C53.7143 4.62201 53.956 4.588 54.1887 4.588C55.7213 4.588 56.4875 5.10899 56.4875 6.15099ZM58.2332 7.85899H57.304C57.3541 7.14285 57.3792 6.32465 57.3792 5.4044C57.3792 4.36957 57.3165 3.50125 57.1912 2.79942L58.2224 2.6544C58.1759 3.40278 58.1526 4.31944 58.1526 5.4044C58.1526 6.26378 58.1794 7.08198 58.2332 7.85899ZM55.6604 6.24229C55.6604 5.5727 55.1698 5.2379 54.1887 5.2379C54.0025 5.2379 53.7608 5.26476 53.4636 5.31847C53.4636 5.95584 53.4708 6.57351 53.4851 7.17149C53.7501 7.21446 54.0312 7.23595 54.3284 7.23595C55.2164 7.23595 55.6604 6.90473 55.6604 6.24229ZM64.6731 5.26476C64.6731 6.1671 64.4045 6.85997 63.8674 7.34337C63.3303 7.82677 62.6965 8.06847 61.9661 8.06847C60.9993 8.06847 60.3297 7.69786 59.9573 6.95665C59.6708 6.39448 59.5276 5.50466 59.5276 4.28722C59.5276 2.94444 59.823 1.9669 60.4138 1.3546C60.8901 0.860458 61.6205 0.561467 62.6052 0.457626C63.1602 0.396754 63.7708 0.319768 64.4368 0.226669L64.3884 1.08604C64.0841 1.10395 63.4539 1.16482 62.4978 1.26866C61.7673 1.36534 61.2589 1.54259 60.9724 1.8004C60.5821 2.14773 60.387 2.75466 60.387 3.6212H60.4407C60.8847 3.10916 61.4862 2.85313 62.2454 2.85313C62.9329 2.85313 63.5094 3.05007 63.9749 3.44395C64.4403 3.83783 64.6731 4.44477 64.6731 5.26476ZM63.7439 5.45274C63.7439 4.90489 63.6042 4.44835 63.325 4.08311C63.0492 3.7143 62.6482 3.52989 62.1218 3.52989C61.3806 3.52989 60.8077 3.78949 60.4031 4.3087C60.4102 5.39724 60.5481 6.18321 60.8167 6.66661C61.0852 7.15001 61.5095 7.39171 62.0896 7.39171C62.5945 7.39171 62.9955 7.20014 63.2927 6.817C63.5935 6.43386 63.7439 5.97911 63.7439 5.45274ZM70.7048 5.15196C70.7048 6.06863 70.4417 6.78477 69.9153 7.3004C69.3889 7.81244 68.7694 8.06847 68.0569 8.06847C67.3909 8.06847 66.818 7.84109 66.3381 7.38634C65.8619 6.93158 65.6238 6.29063 65.6238 5.46349C65.6238 4.53966 65.887 3.81814 66.4133 3.29893C66.9433 2.77973 67.5645 2.52013 68.2771 2.52013C68.9431 2.52013 69.5142 2.75108 69.9905 3.213C70.4667 3.67133 70.7048 4.31765 70.7048 5.15196ZM69.7756 5.33995C69.7756 4.78136 69.6342 4.28543 69.3513 3.85216C69.072 3.41531 68.6728 3.19688 68.1536 3.19688C67.6379 3.19688 67.2405 3.40278 66.9612 3.81456C66.6855 4.22634 66.5476 4.70437 66.5476 5.24864C66.5476 5.81082 66.6873 6.30854 66.9666 6.74181C67.2494 7.17507 67.6523 7.39171 68.175 7.39171C68.6907 7.39171 69.0863 7.18582 69.3621 6.77403C69.6378 6.35867 69.7756 5.88064 69.7756 5.33995ZM76.8171 5.09825C76.8171 5.87169 76.5951 6.55024 76.1511 7.1339C75.7107 7.71397 75.0966 8.00401 74.3088 8.00401C73.65 8.00401 73.2167 7.88585 73.009 7.64952H72.9553C72.9553 8.64496 72.9661 9.53298 72.9875 10.3136H71.9778C72.0601 9.36111 72.1013 8.18484 72.1013 6.78477C72.1013 5.05886 72.0118 3.72325 71.8328 2.77794L72.7781 2.64366L72.8586 3.1754H72.9124C73.2597 2.77078 73.8219 2.56847 74.5989 2.56847C75.2828 2.56847 75.8235 2.81912 76.2209 3.32042C76.6184 3.81814 76.8171 4.41075 76.8171 5.09825ZM75.8611 5.22716C75.8611 4.69721 75.7214 4.24425 75.4421 3.86827C75.1628 3.48871 74.7708 3.29893 74.2659 3.29893C73.6213 3.29893 73.1594 3.49408 72.8801 3.88438C72.9374 5.08751 72.9661 6.12055 72.9661 6.98351C73.2561 7.22699 73.6339 7.34874 74.0994 7.34874C74.6902 7.34874 75.1306 7.14106 75.4207 6.72569C75.7143 6.31033 75.8611 5.81082 75.8611 5.22716ZM84.7395 7.85899H83.7996C83.8461 7.17507 83.8712 6.38731 83.8748 5.49571H81.302C81.302 6.2978 81.3289 7.08556 81.3826 7.85899H80.4426C80.4963 7.14285 80.5232 6.32465 80.5232 5.4044C80.5232 4.36957 80.4587 3.50125 80.3298 2.79942L81.3718 2.6544C81.3539 2.91222 81.3306 3.63015 81.302 4.80821H83.864C83.8425 4.00613 83.7834 3.33653 83.6868 2.79942L84.7288 2.6544C84.6822 3.40278 84.6589 4.31944 84.6589 5.4044C84.6589 6.26378 84.6858 7.08198 84.7395 7.85899ZM90.2019 7.85899L89.3586 7.89122C89.3157 7.71576 89.2942 7.54926 89.2942 7.39171H89.2405C88.8 7.79275 88.2003 7.99327 87.4412 7.99327C87.0294 7.99327 86.6749 7.87332 86.3777 7.63341C86.0805 7.38992 85.9319 7.04438 85.9319 6.59679C85.9319 6.04535 86.1646 5.60313 86.6301 5.27013C87.0956 4.93354 87.9604 4.75629 89.2244 4.73839C89.2351 4.65245 89.2405 4.55398 89.2405 4.44298C89.2405 4.00255 89.1223 3.70893 88.886 3.56212C88.6532 3.41531 88.2987 3.3419 87.8225 3.3419C87.2603 3.3419 86.7071 3.41173 86.1628 3.55138L86.2542 2.81017C86.7913 2.65619 87.4089 2.57921 88.1072 2.57921C88.7445 2.57921 89.2369 2.7117 89.5842 2.97667C89.9316 3.23806 90.1052 3.68565 90.1052 4.31944C90.1052 4.48774 90.0963 4.79389 90.0784 5.2379C90.064 5.67833 90.0569 5.97195 90.0569 6.11876C90.0569 6.77045 90.1052 7.35053 90.2019 7.85899ZM89.2512 6.817C89.2333 6.27273 89.2244 5.78396 89.2244 5.35069C88.5512 5.35069 88.0391 5.40082 87.6882 5.50108C87.101 5.68012 86.8074 6.02208 86.8074 6.52696C86.8074 7.01394 87.1511 7.25743 87.8386 7.25743C88.4294 7.25743 88.9003 7.11062 89.2512 6.817ZM98.0276 7.85899H97.093C97.1431 7.21446 97.1682 6.43207 97.1682 5.51183C97.1682 4.78494 97.1539 4.09028 97.1252 3.42784H96.0564C95.9526 3.82888 95.8362 4.22097 95.7073 4.60411C95.5784 4.98367 95.4405 5.34174 95.2937 5.67833C95.1469 6.01134 94.9929 6.31749 94.8318 6.59679C94.6707 6.87608 94.5077 7.11599 94.343 7.31651C94.1783 7.51703 94.0118 7.6728 93.8435 7.7838C93.6752 7.8948 93.5105 7.9503 93.3494 7.9503L93.2957 7.09093C93.3852 7.08377 93.489 7.02647 93.6072 6.91905C93.7289 6.80805 93.856 6.65587 93.9885 6.46251C94.1246 6.26557 94.2625 6.03282 94.4021 5.76427C94.5453 5.49571 94.685 5.20209 94.821 4.88341C94.9571 4.56472 95.086 4.22634 95.2078 3.86827C95.3331 3.50662 95.4423 3.13601 95.5354 2.75645H97.2971L98.0222 2.6544C97.9757 3.40278 97.9524 4.31944 97.9524 5.4044C97.9524 6.26378 97.9775 7.08198 98.0276 7.85899ZM106.439 5.15196C106.439 6.06505 106.193 6.7794 105.703 7.29503C105.212 7.81065 104.609 8.06847 103.893 8.06847C103.23 8.06847 102.681 7.84467 102.244 7.39708C101.807 6.94591 101.585 6.31212 101.578 5.49571H100.332C100.332 6.2978 100.359 7.08556 100.412 7.85899H99.4563C99.51 7.14285 99.5369 6.32465 99.5369 5.4044C99.5369 4.36957 99.4724 3.50125 99.3435 2.79942L100.402 2.6544C100.384 2.91222 100.36 3.63015 100.332 4.80821H101.621C101.735 4.07774 102.024 3.51378 102.486 3.11632C102.951 2.71886 103.495 2.52013 104.118 2.52013C104.777 2.52013 105.329 2.74929 105.773 3.20763C106.217 3.66596 106.439 4.31407 106.439 5.15196ZM105.531 5.33995C105.531 4.75629 105.399 4.2532 105.134 3.83067C104.869 3.40815 104.489 3.19688 103.995 3.19688C103.501 3.19688 103.123 3.3974 102.862 3.79845C102.6 4.19949 102.469 4.68289 102.469 5.24864C102.469 5.81798 102.602 6.31749 102.867 6.74718C103.132 7.17686 103.515 7.39171 104.016 7.39171C104.507 7.39171 104.881 7.1894 105.139 6.78477C105.4 6.37657 105.531 5.89496 105.531 5.33995ZM112.691 5.26476C112.691 6.1671 112.422 6.85997 111.885 7.34337C111.348 7.82677 110.714 8.06847 109.984 8.06847C109.017 8.06847 108.347 7.69786 107.975 6.95665C107.688 6.39448 107.545 5.50466 107.545 4.28722C107.545 2.94444 107.841 1.9669 108.431 1.3546C108.908 0.860458 109.638 0.561467 110.623 0.457626C111.178 0.396754 111.788 0.319768 112.454 0.226669L112.406 1.08604C112.102 1.10395 111.471 1.16482 110.515 1.26866C109.785 1.36534 109.276 1.54259 108.99 1.8004C108.6 2.14773 108.405 2.75466 108.405 3.6212H108.458C108.902 3.10916 109.504 2.85313 110.263 2.85313C110.95 2.85313 111.527 3.05007 111.992 3.44395C112.458 3.83783 112.691 4.44477 112.691 5.26476ZM111.761 5.45274C111.761 4.90489 111.622 4.44835 111.343 4.08311C111.067 3.7143 110.666 3.52989 110.139 3.52989C109.398 3.52989 108.825 3.78949 108.421 4.3087C108.428 5.39724 108.566 6.18321 108.834 6.66661C109.103 7.15001 109.527 7.39171 110.107 7.39171C110.612 7.39171 111.013 7.20014 111.31 6.817C111.611 6.43386 111.761 5.97911 111.761 5.45274ZM118.722 5.15196C118.722 6.06863 118.459 6.78477 117.933 7.3004C117.406 7.81244 116.787 8.06847 116.074 8.06847C115.408 8.06847 114.836 7.84109 114.356 7.38634C113.879 6.93158 113.641 6.29063 113.641 5.46349C113.641 4.53966 113.905 3.81814 114.431 3.29893C114.961 2.77973 115.582 2.52013 116.295 2.52013C116.961 2.52013 117.532 2.75108 118.008 3.213C118.484 3.67133 118.722 4.31765 118.722 5.15196ZM117.793 5.33995C117.793 4.78136 117.652 4.28543 117.369 3.85216C117.09 3.41531 116.69 3.19688 116.171 3.19688C115.656 3.19688 115.258 3.40278 114.979 3.81456C114.703 4.22634 114.565 4.70437 114.565 5.24864C114.565 5.81082 114.705 6.30854 114.984 6.74181C115.267 7.17507 115.67 7.39171 116.193 7.39171C116.708 7.39171 117.104 7.18582 117.38 6.77403C117.655 6.35867 117.793 5.88064 117.793 5.33995ZM124.357 7.85899H123.395C123.449 7.24669 123.476 6.42849 123.476 5.4044C123.476 5.11436 123.494 4.67931 123.53 4.09923H123.476C123.401 4.3463 122.912 4.9962 122.01 6.04893C121.154 7.05512 120.726 7.65847 120.726 7.85899H119.963C120.013 7.14285 120.038 6.32465 120.038 5.4044C120.038 4.36957 119.976 3.50125 119.85 2.79942L120.914 2.6544C120.867 3.31684 120.844 4.1601 120.844 5.18419C120.844 5.54584 120.833 6.00418 120.812 6.55919H120.865C120.948 6.3336 121.435 5.68549 122.326 4.61485C123.164 3.60867 123.583 3.00352 123.583 2.79942L124.346 2.6544C124.303 3.40278 124.281 4.31944 124.281 5.4044C124.281 6.26378 124.307 7.08198 124.357 7.85899ZM123.889 0.468369C123.889 0.862249 123.764 1.21853 123.513 1.53722C123.266 1.85232 122.842 2.00987 122.24 2.00987C121.617 2.00987 121.179 1.85053 120.925 1.53185C120.67 1.20958 120.543 0.851507 120.543 0.457626L121.317 0.355576C121.317 1.07172 121.625 1.42979 122.24 1.42979C122.602 1.42979 122.847 1.33849 122.976 1.15587C123.105 0.969671 123.17 0.702906 123.17 0.355576L123.889 0.468369ZM132.386 6.34972C132.386 6.85102 132.182 7.23416 131.774 7.49913C131.366 7.76052 130.784 7.89122 130.029 7.89122C129.628 7.89122 129.008 7.88048 128.17 7.85899C128.22 7.36843 128.245 6.54666 128.245 5.39366C128.245 4.32302 128.183 3.44395 128.057 2.75645H128.616C129.149 2.71707 129.692 2.69737 130.243 2.69737C131.518 2.69737 132.156 3.09125 132.156 3.87901C132.156 4.45909 131.896 4.85655 131.377 5.0714V5.12511C132.05 5.25401 132.386 5.66222 132.386 6.34972ZM131.516 6.40343C131.516 6.03461 131.348 5.78575 131.011 5.65685C130.804 5.57807 130.48 5.53868 130.039 5.53868C129.703 5.53868 129.368 5.55121 129.035 5.57628C129.035 6.21365 129.038 6.7436 129.046 7.16612C129.372 7.20909 129.762 7.23058 130.217 7.23058C131.083 7.23058 131.516 6.95486 131.516 6.40343ZM131.328 4.10997C131.328 3.60867 130.963 3.35802 130.233 3.35802C129.875 3.35802 129.461 3.37413 128.992 3.40636C129.021 3.92556 129.035 4.42507 129.035 4.90489C129.483 4.9228 129.86 4.93175 130.168 4.93175C130.537 4.93175 130.825 4.85297 131.033 4.69542C131.23 4.54861 131.328 4.35346 131.328 4.10997ZM137.978 7.85899H137.006C136.977 7.80886 136.934 7.71576 136.877 7.5797C136.648 6.83132 136.402 6.31212 136.141 6.02208C135.879 5.73204 135.536 5.58702 135.11 5.58702C134.963 5.58702 134.773 5.5906 134.54 5.59776C134.54 6.42491 134.567 7.17865 134.621 7.85899H133.659C133.713 7.14285 133.74 6.32465 133.74 5.4044C133.74 4.36957 133.676 3.50125 133.547 2.79942L134.61 2.6544C134.564 3.3419 134.54 4.10281 134.54 4.93712C134.755 4.94428 134.945 4.94786 135.11 4.94786C135.905 4.94786 136.463 4.29975 136.785 3.00352C136.807 2.92117 136.846 2.83881 136.904 2.75645H137.79C137.754 2.83881 137.693 2.99099 137.607 3.213C137.199 4.33377 136.741 4.99083 136.232 5.18419V5.2379C136.572 5.33816 136.855 5.54763 137.081 5.86632C137.31 6.185 137.53 6.65229 137.741 7.26817C137.806 7.45795 137.885 7.65489 137.978 7.85899ZM143.198 2.75645C143.198 2.98562 142.928 3.71609 142.387 4.94786C141.768 6.35509 141.383 7.34695 141.233 7.92345C140.986 8.85802 140.756 9.45242 140.545 9.70665C140.259 10.0576 139.748 10.233 139.014 10.233L138.971 9.48106C139.419 9.48106 139.791 9.32888 140.089 9.02452C140.386 8.72016 140.534 8.33881 140.534 7.88048C140.534 7.48302 140.205 6.5377 139.546 5.04454C138.887 3.55138 138.558 2.78868 138.558 2.75645H139.67C139.67 2.85313 139.895 3.50483 140.346 4.71153C140.798 5.91824 141.023 6.66124 141.023 6.94054H141.077C141.077 6.70779 141.267 6.03282 141.646 4.91563C142.029 3.79845 142.221 3.07872 142.221 2.75645H143.198ZM148.049 7.03722L147.995 7.75694C147.705 7.92166 147.316 8.00401 146.829 8.00401C145.902 8.00401 145.193 7.74799 144.702 7.23595C144.212 6.7239 143.967 6.10623 143.967 5.38292C143.967 4.61664 144.224 3.95779 144.74 3.40636C145.256 2.85492 145.938 2.57921 146.786 2.57921C147.212 2.57921 147.56 2.62218 147.828 2.70811L147.683 3.55138C147.307 3.41173 146.926 3.3419 146.539 3.3419C146.031 3.3419 145.626 3.51915 145.325 3.87364C145.025 4.22813 144.874 4.67214 144.874 5.20567C144.874 5.78575 145.053 6.26915 145.411 6.65587C145.769 7.04259 146.276 7.23595 146.931 7.23595C147.2 7.23595 147.572 7.1697 148.049 7.03722Z" fill="#0A3F23"/>
</svg>
